# xmcd
#
# Track frame offsets: 
#        150
#        12467
#        33455
#        54755
#        71651
#        81701
#        98201
#        113176
#        134776
#        152401
#
# Disc length: 2310 seconds
#
# Revision: 0
# Processed by: cddbd v1.5.2PL0 Copyright (c) Steve Scherf et al.
# Submitted via: ExactAudioCopy v1.3
#
DISCID=8709040a
DTITLE=Demian Band - Souvenirs From Hell
DYEAR=2019
DGENRE=Blues
TTITLE0=Souvenirs from hell
TTITLE1=You don´t love me
TTITLE2=Whiskey lies
TTITLE3=Cry baby
TTITLE4=Appaloosa
TTITLE5=Waitin´
TTITLE6=I got a woman
TTITLE7=I´ll be there
TTITLE8=Ain´t no sunshine
TTITLE9=Letters I´m not gonna send you
EXTD=
EXTT0=
EXTT1=
EXTT2=
EXTT3=
EXTT4=
EXTT5=
EXTT6=
EXTT7=
EXTT8=
EXTT9=
PLAYORDER=
